<svg xmlns="http://www.w3.org/2000/svg"  viewBox="0 0 100 100" width="400px" height="400px"><path d="M 30.994141 17.994141 C 23.814141 17.994141 17.994141 23.814141 17.994141 30.994141 L 17.994141 69.994141 C 17.994141 77.174141 23.814141 82.994141 30.994141 82.994141 L 69.994141 82.994141 C 77.173141 82.994141 82.994141 77.174141 82.994141 69.994141 L 82.994141 30.994141 C 82.994141 23.814141 77.174141 17.994141 69.994141 17.994141 L 30.994141 17.994141 z M 30.994141 19.994141 L 69.994141 19.994141 C 76.069141 19.994141 80.994141 24.919141 80.994141 30.994141 L 80.994141 69.994141 C 80.994141 76.069141 76.069141 80.994141 69.994141 80.994141 L 30.994141 80.994141 C 24.919141 80.994141 19.994141 76.069141 19.994141 69.994141 L 19.994141 30.994141 C 19.994141 24.919141 24.918141 19.994141 30.994141 19.994141 z M 33.830078 22.994141 C 27.845078 22.994141 22.994141 27.845078 22.994141 33.830078 L 22.994141 67.15625 C 22.994141 73.14125 27.845078 77.994141 33.830078 77.994141 L 67.15625 77.994141 C 73.14125 77.994141 77.994141 73.14225 77.994141 67.15625 L 77.994141 48.494141 C 77.994141 48.218141 77.770141 47.994141 77.494141 47.994141 C 77.218141 47.994141 76.994141 48.218141 76.994141 48.494141 L 76.994141 67.15625 C 76.994141 72.58925 72.58925 76.994141 67.15625 76.994141 L 33.832031 76.994141 C 28.399031 76.994141 23.994141 72.58925 23.994141 67.15625 L 23.994141 33.830078 C 23.994141 28.397078 28.397078 23.994141 33.830078 23.994141 L 67.494141 23.994141 C 67.770141 23.994141 67.994141 23.770141 67.994141 23.494141 C 67.994141 23.218141 67.770141 22.994141 67.494141 22.994141 L 33.830078 22.994141 z M 34.5 32 C 33.125015 32 32 33.125015 32 34.5 L 32 40.671875 C 32 41.334579 32.26377 41.970801 32.732422 42.439453 L 58.560547 68.267578 C 59.029199 68.73623 59.665421 69 60.328125 69 L 66.5 69 C 67.874985 69 69 67.874985 69 66.5 L 69 60.328125 C 69 59.665421 68.73623 59.029199 68.267578 58.560547 L 42.439453 32.732422 C 41.970801 32.26377 41.334579 32 40.671875 32 L 34.5 32 z M 52.5 32 A 0.50005 0.50005 0 0 0 52.292969 32.955078 C 52.292969 32.955078 57.734873 35.441904 61.646484 39.353516 C 65.558096 43.265127 68.044922 48.707031 68.044922 48.707031 A 0.50005 0.50005 0 0 0 69 48.5 L 69 34.5 C 69 33.125015 67.874985 32 66.5 32 L 52.5 32 z M 34.5 33 L 40.671875 33 C 41.069171 33 41.451074 33.158105 41.732422 33.439453 L 67.560547 59.267578 C 67.841895 59.548926 68 59.930829 68 60.328125 L 68 66.5 C 68 67.335015 67.335015 68 66.5 68 L 60.328125 68 C 59.930829 68 59.548926 67.841895 59.267578 67.560547 L 33.439453 41.732422 C 33.158105 41.451074 33 41.069171 33 40.671875 L 33 34.5 C 33 33.664985 33.664985 33 34.5 33 z M 54.484375 33 L 66.5 33 C 67.335015 33 68 33.664985 68 34.5 L 68 46.515625 C 67.059082 44.698402 65.337793 41.630762 62.353516 38.646484 C 59.369238 35.662207 56.301598 33.940918 54.484375 33 z M 77.494141 36.572266 C 77.218141 36.572266 76.994141 36.796266 76.994141 37.072266 L 76.994141 39.072266 C 76.994141 39.348266 77.218141 39.572266 77.494141 39.572266 C 77.770141 39.572266 77.994141 39.349266 77.994141 39.072266 L 77.994141 37.072266 C 77.994141 36.796266 77.770141 36.572266 77.494141 36.572266 z M 77.494141 40.572266 C 77.218141 40.572266 76.994141 40.796266 76.994141 41.072266 L 76.994141 45.072266 C 76.994141 45.348266 77.218141 45.572266 77.494141 45.572266 C 77.770141 45.572266 77.994141 45.349266 77.994141 45.072266 L 77.994141 41.072266 C 77.994141 40.796266 77.770141 40.572266 77.494141 40.572266 z M 32.472656 52 A 0.50005 0.50005 0 0 0 32 52.5 L 32 66.5 C 32 67.874985 33.125015 69 34.5 69 L 48.5 69 A 0.50005 0.50005 0 0 0 48.707031 68.044922 C 48.707031 68.044922 43.265127 65.558096 39.353516 61.646484 C 35.441904 57.734873 32.955078 52.292969 32.955078 52.292969 A 0.50005 0.50005 0 0 0 32.472656 52 z M 33 54.484375 C 33.940918 56.301598 35.662207 59.369238 38.646484 62.353516 C 41.630762 65.337793 44.698402 67.059082 46.515625 68 L 34.5 68 C 33.664985 68 33 67.335015 33 66.5 L 33 54.484375 z"/></svg>